<?xml version="1.0" encoding="UTF-8" standalone="no"?>
<!-- Created with Inkscape (http://www.inkscape.org/) -->

<svg
   version="1.1"
   id="svg1"
   width="1122.52"
   height="793.70135"
   viewBox="0 0 1122.52 793.70135"
   sodipodi:docname="logo ppv 2025.svg"
   inkscape:version="1.3.2 (091e20e, 2023-11-25, custom)"
   xmlns:inkscape="http://www.inkscape.org/namespaces/inkscape"
   xmlns:sodipodi="http://sodipodi.sourceforge.net/DTD/sodipodi-0.dtd"
   xmlns="http://www.w3.org/2000/svg"
   xmlns:svg="http://www.w3.org/2000/svg">
  <defs
     id="defs1">
    <rect
       x="387.46938"
       y="496.99057"
       width="302.81954"
       height="85.522521"
       id="rect20" />
    <clipPath
       clipPathUnits="userSpaceOnUse"
       id="clipPath2">
      <path
         d="M 0,595.276 H 841.89 V 0 H 0 Z"
         transform="translate(-61.413101,-296.66281)"
         id="path2" />
    </clipPath>
    <clipPath
       clipPathUnits="userSpaceOnUse"
       id="clipPath4">
      <path
         d="M 0,595.276 H 841.89 V 0 H 0 Z"
         transform="translate(-662.80961,-241.1066)"
         id="path4" />
    </clipPath>
    <clipPath
       clipPathUnits="userSpaceOnUse"
       id="clipPath6">
      <path
         d="M 0,595.276 H 841.89 V 0 H 0 Z"
         transform="translate(-619.38671,-362.04951)"
         id="path6" />
    </clipPath>
    <clipPath
       clipPathUnits="userSpaceOnUse"
       id="clipPath8">
      <path
         d="M 0,595.276 H 841.89 V 0 H 0 Z"
         transform="translate(-337.69681,-353.32251)"
         id="path8" />
    </clipPath>
    <clipPath
       clipPathUnits="userSpaceOnUse"
       id="clipPath10">
      <path
         d="M 0,595.276 H 841.89 V 0 H 0 Z"
         transform="translate(-400.86041,-365.96801)"
         id="path10" />
    </clipPath>
    <clipPath
       clipPathUnits="userSpaceOnUse"
       id="clipPath12">
      <path
         d="M 0,595.276 H 841.89 V 0 H 0 Z"
         transform="translate(-268.894,-353.43381)"
         id="path12" />
    </clipPath>
    <clipPath
       clipPathUnits="userSpaceOnUse"
       id="clipPath14">
      <path
         d="M 0,595.276 H 841.89 V 0 H 0 Z"
         transform="translate(-440.77251,-255.59791)"
         id="path14" />
    </clipPath>
    <clipPath
       clipPathUnits="userSpaceOnUse"
       id="clipPath16">
      <path
         d="M 0,595.276 H 841.89 V 0 H 0 Z"
         transform="translate(-357.25491,-248.65061)"
         id="path16" />
    </clipPath>
    <clipPath
       clipPathUnits="userSpaceOnUse"
       id="clipPath18">
      <path
         d="M 0,595.276 H 841.89 V 0 H 0 Z"
         transform="translate(-411.43021,-255.44551)"
         id="path18" />
    </clipPath>
    <clipPath
       clipPathUnits="userSpaceOnUse"
       id="clipPath20">
      <path
         d="M 0,595.276 H 841.89 V 0 H 0 Z"
         transform="translate(-481.88571,-258.45821)"
         id="path20" />
    </clipPath>
  </defs>
  <sodipodi:namedview
     id="namedview1"
     pagecolor="#ffffff"
     bordercolor="#000000"
     borderopacity="0.25"
     inkscape:showpageshadow="2"
     inkscape:pageopacity="0.0"
     inkscape:pagecheckerboard="0"
     inkscape:deskcolor="#d1d1d1"
     showguides="true"
     inkscape:zoom="2.291794"
     inkscape:cx="443.32083"
     inkscape:cy="389.43291"
     inkscape:window-width="3840"
     inkscape:window-height="2054"
     inkscape:window-x="-11"
     inkscape:window-y="-11"
     inkscape:window-maximized="1"
     inkscape:current-layer="layer-MC0">
    <inkscape:page
       x="0"
       y="0"
       inkscape:label="1"
       id="page1"
       width="1122.52"
       height="793.70135"
       margin="193.85333 138.39734 199.62534 73.217201"
       bleed="0" />
  </sodipodi:namedview>
  <g
     id="layer-MC0"
     inkscape:groupmode="layer"
     inkscape:label="Vrstva 1">
    <path
       id="path1"
       d="m 0,0 h 39.596 c 0,0 -2.284,-29.697 3.807,-29.697 6.092,0 90.615,172.091 90.615,172.091 L 90.614,-140.872 158.893,18.783 c 0,0 13.96,33.758 12.437,19.29 -1.523,-14.468 1.523,-37.312 1.523,-37.312 h 424.136"
       style="fill:none;stroke:#ed1e2e;stroke-width:13;stroke-linecap:round;stroke-linejoin:round;stroke-miterlimit:10;stroke-dasharray:none;stroke-opacity:1"
       transform="matrix(1.3333333,0,0,-1.3333333,81.884133,398.15093)"
       clip-path="url(#clipPath2)" />
    <path
       id="path3"
       d="m 0,0 c 0.212,0.421 0.297,0.678 0.451,0.883 3.516,4.67 7.024,9.346 10.565,13.998 9.487,12.464 18.264,25.426 26.947,38.451 5.589,8.383 11.209,16.755 16.476,25.339 4.71,7.676 8.926,15.653 13.419,23.462 1.975,3.432 4.115,6.768 6.142,10.17 0.468,0.784 0.879,1.628 1.146,2.497 0.449,1.455 -0.235,2.261 -1.781,2.33 -2.363,0.105 -4.045,-1.082 -5.362,-2.869 -1.522,-2.063 -2.958,-4.187 -4.443,-6.277 C 50.907,90.176 38.39,72.27 25.548,54.6 17.788,43.925 9.544,33.601 1.479,23.148 -4.603,15.269 -10.754,7.442 -16.85,-0.427 c -0.592,-0.765 -1.216,-1.224 -2.217,-1.4 -3.223,-0.564 -6.42,-1.269 -9.632,-1.901 -4.585,-0.901 -9.235,-1.126 -13.889,-1.153 -9.101,-0.053 -18.204,0.029 -27.305,-0.056 -10.062,-0.092 -20.124,-0.266 -30.183,-0.513 -1.674,-0.042 -2.726,0.468 -3.692,1.785 -4.541,6.197 -9.153,12.343 -13.745,18.504 -1,1.342 -2.021,2.669 -3.083,4.069 3.287,4.926 6.595,9.882 9.912,14.852 -2.992,1.366 -4.918,1.03 -7.134,-1.043 -2.674,-2.499 -5.414,-4.928 -8.103,-7.411 -0.979,-0.906 -1.912,-1.863 -2.833,-2.827 -0.967,-1.013 -2.109,-1.28 -3.457,-1.03 -0.835,0.155 -1.695,0.177 -2.542,0.275 -0.769,0.089 -1.007,-0.291 -0.847,-0.973 0.203,-0.862 0.407,-1.727 0.682,-2.566 0.356,-1.09 0.305,-2.019 -0.544,-2.918 -1.925,-2.041 -3.787,-4.143 -5.662,-6.231 -0.401,-0.447 -0.749,-0.942 -1.343,-1.695 1.842,-0.095 3.473,-0.527 4.89,-0.152 1.376,0.365 2.532,1.556 3.898,2.458 0.753,-2.824 1.49,-5.574 2.22,-8.325 0.559,-2.105 1.171,-4.201 1.636,-6.328 0.182,-0.831 0.61,-1.099 1.334,-1.262 3.321,-0.744 6.646,-1.477 9.948,-2.302 0.902,-0.226 1.779,-0.677 2.573,-1.175 0.684,-0.429 1.322,-0.511 1.876,-0.02 1.004,0.892 2.179,0.885 3.381,0.849 6.939,-0.208 13.878,-0.391 20.815,-0.645 5.5,-0.202 10.997,-0.493 16.495,-0.744 4.337,-0.197 8.673,-0.385 13.008,-0.591 10.092,-0.479 20.193,-0.869 30.256,-3.173 -0.917,-0.91 -1.767,-1.864 -2.727,-2.691 -8.834,-7.611 -17.56,-15.355 -26.566,-22.757 -10.825,-8.897 -21.783,-17.641 -32.888,-26.186 -11.289,-8.688 -22.992,-16.818 -34.87,-24.688 -1.391,-0.921 -2.703,-1.98 -3.942,-3.096 -0.39,-0.352 -0.703,-1.191 -0.557,-1.648 0.257,-0.796 1.085,-0.597 1.772,-0.432 4.255,1.022 8.123,2.886 11.796,5.237 14.722,9.417 29.616,18.574 44.15,28.27 12.05,8.039 23.604,16.805 34.74,26.098 5.458,4.555 10.983,9.03 16.515,13.494 1.966,1.586 3.998,3.104 6.102,4.497 0.596,0.396 1.57,0.398 2.344,0.322 5.024,-0.497 10.039,-1.079 15.06,-1.609 7.294,-0.77 14.615,-0.672 21.932,-0.637 5.591,0.027 11.107,0.799 16.553,2.03 2.02,0.457 3.996,1.109 5.981,1.71 0.448,0.135 0.869,0.397 1.268,0.653 1.351,0.865 1.433,1.744 0.149,2.722 -0.862,0.657 -1.83,1.192 -2.801,1.684 -6.75,3.427 -13.902,5.74 -21.189,7.705 C 18.639,-2.3 14.636,-1.035 10.434,-0.693 7.438,-0.449 4.435,-0.301 1.435,-0.109 1.034,-0.083 0.634,-0.048 0,0"
       style="fill:#263977;fill-opacity:1;fill-rule:nonzero;stroke:none"
       transform="matrix(1.3333333,0,0,-1.3333333,883.74613,472.22587)"
       clip-path="url(#clipPath4)" />
    <path
       id="path5"
       d="m 0,0 c 0.099,0.201 0.138,0.324 0.21,0.423 1.651,2.243 3.299,4.488 4.962,6.722 4.456,5.985 8.571,12.204 12.641,18.453 2.621,4.022 5.255,8.038 7.721,12.154 2.205,3.68 4.173,7.501 6.274,11.244 0.923,1.645 1.925,3.245 2.875,4.876 0.217,0.376 0.41,0.78 0.533,1.195 0.206,0.696 -0.124,1.076 -0.861,1.101 -1.126,0.038 -1.921,-0.536 -2.54,-1.394 C 31.102,53.784 30.428,52.765 29.73,51.762 23.794,43.214 17.922,34.621 11.894,26.139 8.251,21.014 4.376,16.054 0.587,11.035 -2.27,7.25 -5.16,3.491 -8.024,-0.289 c -0.28,-0.367 -0.574,-0.589 -1.05,-0.678 -1.532,-0.285 -3.052,-0.637 -4.578,-0.954 -2.18,-0.453 -4.394,-0.583 -6.611,-0.62 -4.336,-0.071 -8.672,-0.078 -13.007,-0.165 -4.793,-0.095 -9.584,-0.229 -14.376,-0.398 -0.796,-0.028 -1.3,0.209 -1.767,0.832 -2.194,2.93 -4.423,5.834 -6.642,8.745 -0.483,0.634 -0.976,1.261 -1.489,1.923 1.541,2.364 3.092,4.741 4.647,7.125 -1.432,0.636 -2.348,0.466 -3.394,-0.532 -1.261,-1.205 -2.554,-2.376 -3.822,-3.572 -0.462,-0.436 -0.902,-0.897 -1.335,-1.361 -0.455,-0.488 -0.998,-0.62 -1.642,-0.508 -0.398,0.07 -0.808,0.076 -1.212,0.118 -0.367,0.038 -0.478,-0.144 -0.398,-0.468 0.1,-0.409 0.202,-0.82 0.337,-1.219 0.175,-0.517 0.156,-0.96 -0.244,-1.393 -0.907,-0.982 -1.784,-1.992 -2.665,-2.996 -0.19,-0.215 -0.353,-0.453 -0.631,-0.815 0.878,-0.035 1.656,-0.233 2.33,-0.047 0.653,0.18 1.198,0.754 1.844,1.19 0.373,-1.341 0.738,-2.647 1.099,-3.954 0.277,-1 0.579,-1.995 0.812,-3.006 0.09,-0.396 0.297,-0.521 0.641,-0.595 1.586,-0.337 3.174,-0.67 4.751,-1.046 0.431,-0.103 0.851,-0.313 1.232,-0.546 0.328,-0.201 0.632,-0.237 0.893,0 0.475,0.429 1.034,0.432 1.607,0.421 3.306,-0.064 6.613,-0.116 9.919,-0.202 2.621,-0.068 5.241,-0.179 7.861,-0.271 2.066,-0.072 4.134,-0.14 6.2,-0.216 4.81,-0.177 9.623,-0.311 14.429,-1.358 -0.432,-0.438 -0.833,-0.896 -1.286,-1.295 -4.169,-3.671 -8.286,-7.404 -12.539,-10.975 -5.113,-4.294 -10.288,-8.515 -15.535,-12.642 -5.334,-4.195 -10.867,-8.127 -16.486,-11.936 -0.657,-0.446 -1.277,-0.958 -1.861,-1.496 -0.185,-0.169 -0.329,-0.57 -0.257,-0.787 0.126,-0.378 0.52,-0.279 0.846,-0.197 2.021,0.508 3.854,1.416 5.592,2.554 6.965,4.561 14.014,8.998 20.889,13.691 5.699,3.891 11.158,8.125 16.417,12.608 2.576,2.198 5.186,4.357 7.799,6.512 0.928,0.766 1.888,1.498 2.883,2.173 0.283,0.191 0.746,0.198 1.116,0.165 2.395,-0.211 4.787,-0.462 7.182,-0.69 3.478,-0.33 6.965,-0.246 10.45,-0.192 2.664,0.041 5.288,0.436 7.876,1.05 0.959,0.229 1.897,0.549 2.84,0.845 0.213,0.067 0.412,0.194 0.601,0.318 0.639,0.419 0.673,0.838 0.057,1.297 -0.414,0.309 -0.878,0.559 -1.343,0.789 C 17.724,-3.465 14.305,-2.4 10.823,-1.5 8.891,-1.001 6.977,-0.419 4.974,-0.277 3.545,-0.176 2.113,-0.121 0.684,-0.045 0.492,-0.035 0.302,-0.02 0,0"
       style="fill:#263977;fill-opacity:1;fill-rule:nonzero;stroke:none"
       transform="matrix(1.3333333,0,0,-1.3333333,825.84893,310.96867)"
       clip-path="url(#clipPath6)" />
    <path
       id="path7"
       d="m 0,0 c 3.99,4.387 7.259,8.07 10.649,11.623 0.599,0.627 1.71,1.002 2.584,1 10.517,-0.023 21.044,0.11 31.55,-0.31 8.448,-0.338 14.247,-5.114 15.801,-12.061 1.668,-7.459 -1.89,-15.976 -9.165,-19.797 -3.998,-2.101 -8.612,-3.557 -13.051,-3.926 -7.935,-0.659 -15.949,-0.277 -23.929,-0.326 -1.307,-0.009 -2.614,-10e-4 -4.097,-10e-4 -0.617,-3.569 -1.036,-6.834 -1.815,-10.001 -0.253,-1.029 -1.402,-2.517 -2.216,-2.572 -3.953,-0.269 -7.931,-0.121 -12.476,-0.121 1.392,8.501 2.713,16.577 4.113,25.135 h 3.9 c 11.73,0 23.461,-0.083 35.19,0.075 2.206,0.03 4.758,0.474 6.488,1.737 1.39,1.013 2.554,3.647 2.363,5.385 -0.155,1.41 -2.309,2.918 -3.882,3.706 -1.316,0.66 -3.074,0.435 -4.636,0.439 C 25.283,0.012 13.196,0 0,0"
       style="fill:#263977;fill-opacity:1;fill-rule:nonzero;stroke:none"
       transform="matrix(1.3333333,0,0,-1.3333333,450.2624,322.60467)"
       clip-path="url(#clipPath8)" />
    <path
       id="path9"
       d="m 0,0 c 5.994,0 11.173,0.13 16.335,-0.122 0.916,-0.045 2.06,-1.524 2.593,-2.614 4.144,-8.467 8.161,-17.003 12.229,-25.511 0.581,-1.216 1.233,-2.396 2.118,-4.109 5.518,6.539 10.777,12.767 16.032,19 1.523,1.808 3.056,3.663 4.488,5.478 C 61.687,2.127 68.036,0.166 77.3,-0.25 71.944,-6.654 67.048,-12.531 62.128,-18.388 55.165,-26.678 48.252,-35.016 41.169,-43.19 39.334,-45.308 37.158,-47.327 34.767,-48.634 29.883,-51.301 24.756,-50.088 22.4,-45.444 14.919,-30.687 7.738,-15.76 0,0"
       style="fill:#263977;fill-opacity:1;fill-rule:nonzero;stroke:none"
       transform="matrix(1.3333333,0,0,-1.3333333,534.48053,305.744)"
       clip-path="url(#clipPath10)" />
    <path
       id="path11"
       d="m 0,0 c 3.99,4.387 7.258,8.07 10.649,11.624 0.599,0.626 1.71,1.001 2.583,1 C 23.75,12.6 34.277,12.733 44.783,12.313 53.231,11.975 59.03,7.2 60.584,0.253 c 1.668,-7.46 -1.891,-15.977 -9.166,-19.798 -3.998,-2.101 -8.611,-3.557 -13.051,-3.926 -7.935,-0.659 -15.948,-0.276 -23.928,-0.326 -1.307,-0.008 -2.614,-10e-4 -4.097,-10e-4 -0.618,-3.569 -1.036,-6.833 -1.815,-10 -0.253,-1.03 -1.402,-2.518 -2.216,-2.573 -3.953,-0.268 -7.931,-0.121 -12.476,-0.121 1.392,8.501 2.713,16.578 4.113,25.135 h 3.899 c 11.731,10e-4 23.462,-0.082 35.19,0.075 2.207,0.03 4.759,0.475 6.489,1.737 1.39,1.013 2.554,3.648 2.363,5.385 -0.156,1.41 -2.309,2.918 -3.882,3.706 -1.316,0.66 -3.074,0.435 -4.637,0.439 C 25.283,0.012 13.196,0 0,0"
       style="fill:#263977;fill-opacity:1;fill-rule:nonzero;stroke:none"
       transform="matrix(1.3333333,0,0,-1.3333333,358.52533,322.45627)"
       clip-path="url(#clipPath12)" />
    <text
       xml:space="preserve"
       id="text20"
       style="font-size:48px;font-family:'Berlin Sans FB Demi';-inkscape-font-specification:'Berlin Sans FB Demi';white-space:pre;shape-inside:url(#rect20);fill:#263977;fill-opacity:1;stroke:#263977;stroke-width:0.377953;stroke-opacity:1"
       transform="matrix(1.253431,0,-0.23749936,1.1858909,99.594091,-178.80766)"><tspan
         x="387.46875"
         y="542.29127"
         id="tspan2"><tspan
           style="font-weight:bold;font-family:Peloric;-inkscape-font-specification:'Peloric Bold'"
           id="tspan1">2025</tspan></tspan></text>
  </g>
</svg>
